<svg width="70" height="56" viewBox="0 0 70 56" fill="none" xmlns="http://www.w3.org/2000/svg">
<g clip-path="url(#clip0_60_176)">
<path d="M36.9469 0.590625C35.7656 -0.196875 34.2344 -0.196875 33.0531 0.590625L18.1891 10.5H5.25C2.35156 10.5 0 12.8516 0 15.75V50.75C0 53.6484 2.35156 56 5.25 56H64.75C67.6484 56 70 53.6484 70 50.75V15.75C70 12.8516 67.6484 10.5 64.75 10.5H51.8109L36.9469 0.590625ZM28 45.5C28 41.6391 31.1391 38.5 35 38.5C38.8609 38.5 42 41.6391 42 45.5V56H28V45.5ZM10.5 21H14C14.9625 21 15.75 21.7875 15.75 22.75V29.75C15.75 30.7125 14.9625 31.5 14 31.5H10.5C9.5375 31.5 8.75 30.7125 8.75 29.75V22.75C8.75 21.7875 9.5375 21 10.5 21ZM54.25 22.75C54.25 21.7875 55.0375 21 56 21H59.5C60.4625 21 61.25 21.7875 61.25 22.75V29.75C61.25 30.7125 60.4625 31.5 59.5 31.5H56C55.0375 31.5 54.25 30.7125 54.25 29.75V22.75ZM10.5 35H14C14.9625 35 15.75 35.7875 15.75 36.75V43.75C15.75 44.7125 14.9625 45.5 14 45.5H10.5C9.5375 45.5 8.75 44.7125 8.75 43.75V36.75C8.75 35.7875 9.5375 35 10.5 35ZM54.25 36.75C54.25 35.7875 55.0375 35 56 35H59.5C60.4625 35 61.25 35.7875 61.25 36.75V43.75C61.25 44.7125 60.4625 45.5 59.5 45.5H56C55.0375 45.5 54.25 44.7125 54.25 43.75V36.75ZM25.375 19.25C25.375 16.6973 26.3891 14.2491 28.1941 12.4441C29.9991 10.6391 32.4473 9.625 35 9.625C37.5527 9.625 40.0009 10.6391 41.8059 12.4441C43.6109 14.2491 44.625 16.6973 44.625 19.25C44.625 21.8027 43.6109 24.2509 41.8059 26.0559C40.0009 27.8609 37.5527 28.875 35 28.875C32.4473 28.875 29.9991 27.8609 28.1941 26.0559C26.3891 24.2509 25.375 21.8027 25.375 19.25ZM35 14C34.0375 14 33.25 14.7875 33.25 15.75V19.25C33.25 20.2125 34.0375 21 35 21H38.5C39.4625 21 40.25 20.2125 40.25 19.25C40.25 18.2875 39.4625 17.5 38.5 17.5H36.75V15.75C36.75 14.7875 35.9625 14 35 14Z" fill="#063E57"/>
</g>
<defs>
<clipPath id="clip0_60_176">
<rect width="70" height="56" fill="white"/>
</clipPath>
</defs>
</svg>
