<svg width="69" height="56" viewBox="0 0 69 56" fill="none" xmlns="http://www.w3.org/2000/svg">
<g clip-path="url(#clip0_60_217)">
<path d="M42.349 0.218126C40.5162 -0.310273 38.6079 0.75731 38.0796 2.59053L24.2796 50.9013C23.7513 52.7346 24.8187 54.6433 26.6515 55.1717C28.4843 55.7001 30.3926 54.6325 30.9209 52.7993L44.7209 4.48846C45.2491 2.65523 44.1818 0.746526 42.349 0.218126ZM51.0387 13.1693C49.691 14.5173 49.691 16.7063 51.0387 18.0543L60.6663 27.6949L51.0279 37.3355C49.6802 38.6835 49.6802 40.8725 51.0279 42.2205C52.3755 43.5685 54.5641 43.5685 55.9118 42.2205L67.9868 30.1428C69.3344 28.7948 69.3344 26.6057 67.9868 25.2578L55.9118 13.1801C54.5641 11.8321 52.3755 11.8321 51.0279 13.1801L51.0387 13.1693ZM17.9726 13.1693C16.6249 11.8213 14.4363 11.8213 13.0887 13.1693L1.01367 25.247C-0.333984 26.595 -0.333984 28.7841 1.01367 30.132L13.0887 42.2097C14.4363 43.5577 16.6249 43.5577 17.9726 42.2097C19.3202 40.8618 19.3202 38.6727 17.9726 37.3247L8.33414 27.6949L17.9726 18.0543C19.3202 16.7063 19.3202 14.5173 17.9726 13.1693Z" fill="#063E57"/>
</g>
<defs>
<clipPath id="clip0_60_217">
<rect width="69" height="55.2124" fill="white" transform="translate(0 0.0888062)"/>
</clipPath>
</defs>
</svg>
